HIERARCHY
ROOT Hips
{
  OFFSET 155.048 98.1286 3.93448
  CHANNELS 6 Xposition Yposition Zposition Zrotation Xrotation Yrotation
  JOINT RightUpLeg
  {
    OFFSET -8.9458 -8.66707 0.101652
    CHANNELS 3 Zrotation Xrotation Yrotation
    JOINT RightLeg
    {
      OFFSET 0 -44.4227 1.3727
      CHANNELS 3 Zrotation Xrotation Yrotation
      JOINT RightFoot
      {
        OFFSET 0.253549 -42.0924 -1.46059
        CHANNELS 3 Zrotation Xrotation Yrotation
        JOINT RightToes
        {
          OFFSET 0.04 -4.41509 8.4991
          CHANNELS 3 Zrotation Xrotation Yrotation
          End Site
          {
            OFFSET -0.08 -0.137448 9.77979
          }
        }
      }
    }
  }
  JOINT Spine
  {
    OFFSET 0 11.8905 0
    CHANNELS 3 Zrotation Xrotation Yrotation
    JOINT Spine1
    {
      OFFSET 0 25.6574 0.127663
      CHANNELS 3 Zrotation Xrotation Yrotation
      JOINT Head
      {
        OFFSET 0 8.73416 0.011341
        CHANNELS 3 Zrotation Xrotation Yrotation
        End Site
        {
          OFFSET -0.29 12.7742 2.51395
        }
      }
      JOINT LeftShoulder1
      {
        OFFSET 8.99 -0.362252 -0.22
        CHANNELS 3 Zrotation Xrotation Yrotation
        JOINT LeftArm
        {
          OFFSET 10.2827 -0.00337999 0.322123
          CHANNELS 3 Zrotation Xrotation Yrotation
          JOINT LeftForeArm
          {
            OFFSET 26.2597 0.099144 -1.42434
            CHANNELS 3 Zrotation Xrotation Yrotation
            JOINT LeftHand
            {
              OFFSET 22.0902 0.085362 1.02216
              CHANNELS 3 Zrotation Xrotation Yrotation
              End Site
              {
                OFFSET 13.419 -0.6 1.50291
              }
            }
          }
        }
      }
      JOINT RightShoulder
      {
        OFFSET -8.99 -0.362252 -0.22
        CHANNELS 3 Zrotation Xrotation Yrotation
        JOINT RightArm
        {
          OFFSET -10.2827 -0.00338 0.322123
          CHANNELS 3 Zrotation Xrotation Yrotation
          JOINT RightForeArm
          {
            OFFSET -26.364 0.099144 -1.42434
            CHANNELS 3 Zrotation Xrotation Yrotation
            JOINT RightHand
            {
              OFFSET -22.0324 0.085362 1.02216
              CHANNELS 3 Zrotation Xrotation Yrotation
              End Site
              {
                OFFSET -13.3284 -0.6 1.50291
              }
            }
          }
        }
      }
    }
  }
  JOINT LeftUpLeg
  {
    OFFSET 8.9458 -8.66707 0.101652
    CHANNELS 3 Zrotation Xrotation Yrotation
    JOINT LeftLeg
    {
      OFFSET 0 -44.4227 1.3727
      CHANNELS 3 Zrotation Xrotation Yrotation
      JOINT LeftFoot
      {
        OFFSET -0.253549 -42.0924 -1.46059
        CHANNELS 3 Zrotation Xrotation Yrotation
        JOINT LeftToes
        {
          OFFSET -0.04 -4.41509 8.4991
          CHANNELS 3 Zrotation Xrotation Yrotation
          End Site
          {
            OFFSET 0.08 -0.047448 9.77979
          }
        }
      }
    }
  }
}
MOTION
Frames:	16
Frame Time:	0.0333333
17.2797 100.077 -12.3267 2.34553 0.38968 -9.93676 6.06099 -11.4022 0.148296 -0.431593 39.7387 0.0720068 -9.64789 -7.10938 -0.120743 0.0462048 0.000530889 0.662642 2.10374 -7.88849 -2.57061 -7.40992 12.3417 0.169733 12.8243 -7.61249 -45.236 -34.0156 7.6939 -15.5481 -43.6502 -11.7579 11.0542 -23.1293 13.8653 -59.6326 20.4561 9.06835 0.583876 45.8672 11.5167 17.7886 35.2271 -26.808 0.649284 -3.24152 25.0491 65.536 -7.65752 9.38372 3.32688 -1.71999 -18.2651 14.1701 8.36067 84.0433 9.48022 -11.0023 -0.895031 0.641642 -1.33837e-009 8.75228e-006 -1.48252e-008 
16.735 99.5473 -12.2416 2.39354 -0.316681 -21.7697 5.68707 -10.8353 0.175194 -0.373912 40.761 1.34374 -9.58929 -8.93115 -0.287643 0.0462048 0.000530889 0.662642 5.31959 -8.28362 -1.7374 -8.98529 12.1993 1.21216 11.4376 -7.33258 -44.2305 -34.6842 7.79862 -15.4876 -42.4237 -14.1963 12.8946 -23.5737 12.8826 -57.9804 21.9631 8.95131 0.293494 45.9559 11.6114 17.9247 36.0446 -24.3986 2.63904 -4.02817 25.423 64.9302 -7.09149 9.42769 3.30313 -1.82131 -17.9092 13.3917 9.4606 85.0529 6.7691 -10.2848 -0.0545548 0.670188 -1.33837e-009 8.75228e-006 -1.48252e-008 
16.0774 99.2944 -11.9091 2.43401 -0.555014 -33.3577 5.07334 -10.4585 1.13274 -0.22741 41.2491 4.60054 -9.23189 -9.88324 -0.36854 0.0462048 0.000530889 0.662642 9.23964 -8.75468 -0.450471 -10.7732 12.1731 2.5986 10.0714 -7.06916 -43.6897 -34.7565 7.71436 -15.2518 -42.3136 -15.8488 13.3827 -23.881 10.9256 -54.5394 22.8514 8.86676 0.0619272 45.7401 11.5631 17.9307 36.8141 -22.3759 4.23288 -4.58993 25.7434 64.1373 -7.28131 9.41688 3.23946 -1.76721 -17.9813 14.2952 11.4172 86.0857 3.40555 -9.11483 -0.273007 0.575424 -1.33837e-009 8.75228e-006 -1.48252e-008 
15.2353 99.3775 -11.446 2.76202 -0.746497 -44.074 3.9697 -9.99039 1.93806 -0.0507336 40.8359 8.28167 -8.58039 -9.99093 -0.364435 0.0462048 0.000530889 0.662642 12.6706 -8.77288 0.973578 -11.9976 12.2902 3.91884 8.72052 -6.93005 -42.4627 -34.7186 7.58182 -14.9517 -42.7277 -16.79 12.6219 -23.7067 8.37388 -50.0115 23.0572 8.82876 -0.0838 45.4445 11.4584 17.867 37.3515 -20.758 5.68171 -5.00867 26.0096 63.4314 -7.91434 9.37006 3.23141 -1.95 -18.3736 15.4256 13.3657 86.4751 2.81878 -8.71455 -0.606681 0.525316 -1.33837e-009 8.75228e-006 -1.48252e-008 
14.2422 99.6 -11.0714 3.03747 -1.1501 -52.9719 2.73702 -9.0434 1.88135 0.05459 39.5931 10.365 -7.25741 -10.2651 -0.355385 0.0462048 0.000530889 0.662642 14.9012 -7.84214 1.89589 -12.0569 12.3576 4.64969 7.36108 -6.72094 -39.7322 -34.8187 7.52604 -14.7728 -43.0173 -16.7135 11.1907 -22.8291 5.87863 -45.2058 22.9642 8.84527 -0.0210732 45.3761 11.4515 17.8842 37.6911 -19.7646 7.00238 -5.3843 26.2394 62.9606 -8.35448 9.33797 3.21998 -2.38689 -19.0565 14.7786 14.7759 86.2578 5.98474 -8.93268 -1.36749 0.485049 -1.33837e-009 8.75228e-006 -1.48252e-008 
13.1367 99.842 -10.8431 3.33189 -1.49646 -60.1644 1.70411 -8.05948 1.34197 0.0858696 38.0028 11.1219 -5.35578 -10.7115 -0.337215 0.0462048 0.000530889 0.662642 16.4018 -6.16339 2.38359 -11.653 11.8929 5.0311 6.06057 -6.37054 -35.8858 -34.9082 7.51783 -14.7132 -42.9772 -15.2528 9.81 -21.1679 4.21733 -40.7751 22.6536 8.90456 0.212669 45.5389 11.5432 17.9833 38.1265 -19.2846 7.98038 -5.69777 26.4086 62.7846 -8.8234 9.30415 3.2012 -2.91968 -20.5273 11.8937 15.234 85.7965 10.6247 -7.47187 -2.62883 0.331595 -1.33837e-009 8.75228e-006 -1.48252e-008 
11.8416 100.18 -10.7001 4.24691 -1.66949 -66.6598 0.948773 -7.81019 1.10867 0.080892 36.4171 10.9808 -3.62631 -10.4672 -0.281115 0.0462048 0.000530889 0.662642 17.5257 -4.30866 3.05256 -11.605 10.7663 5.68227 4.87711 -6.4424 -31.9032 -34.8991 7.47282 -14.6097 -42.7369 -13.0571 9.03481 -18.9017 4.02658 -37.2746 22.3488 8.93403 0.294813 45.6563 11.5838 18.0065 38.8385 -18.7677 8.66491 -6.01259 26.5412 62.8949 -9.52758 9.23814 3.38263 -3.66209 -23.2026 7.83837 12.6215 84.8007 14.1691 -4.45419 -4.05934 0.152513 -1.33837e-009 8.75228e-006 -1.48252e-008 
10.3757 100.508 -10.6635 5.70033 -1.77564 -72.7601 0.688206 -8.17303 1.14427 -0.000401256 35.0124 9.20889 -2.85471 -9.84629 -0.24099 0.0462048 0.000530889 0.662642 18.1484 -2.44573 3.95483 -11.7422 9.59696 6.64703 3.77445 -7.72644 -28.3951 -34.9143 7.41514 -14.4652 -42.4047 -11.5625 8.92634 -16.7196 4.9318 -34.9726 22.6364 8.89683 0.167928 45.6798 11.5615 17.9545 39.5023 -17.9431 9.4179 -6.44829 26.7024 63.1897 -9.6863 9.19825 3.75749 -4.56556 -26.58 3.41041 7.43593 81.97 14.5071 -3.40792 -6.52837 0.0500542 -1.33837e-009 8.75228e-006 -1.48252e-008 
8.91376 100.519 -10.7298 6.7891 -1.81756 -77.728 0.976388 -8.23827 1.03728 -0.119697 34.0454 6.61185 -2.72508 -9.92483 -0.241139 0.0462048 0.000530889 0.662642 18.4805 -0.244113 4.49133 -11.7432 8.98069 7.41459 2.74444 -10.3388 -25.5012 -35.0646 7.45167 -14.4861 -41.8778 -11.194 8.97295 -15.5351 5.37994 -33.487 23.4904 8.85142 0.138587 45.905 11.654 18.0258 39.5609 -17.1816 10.4924 -6.98725 26.9253 63.3765 -8.72214 9.25835 3.99617 -5.2314 -29.5939 -1.27386 3.27193 75.769 12.7773 -5.8245 -10.0157 -0.0810179 -1.33837e-009 8.75228e-006 -1.48252e-008 
7.45838 100.357 -10.9252 7.10261 -2.21019 -81.0622 1.14378 -7.25346 1.70521 -0.183186 33.1292 4.98684 -2.03254 -10.5159 -0.241239 0.0462048 0.000530889 0.662642 18.0099 2.51847 4.42702 -11.8014 8.67656 7.6555 1.97073 -13.5118 -23.346 -35.2832 7.61198 -14.7701 -41.1076 -10.9624 8.54869 -15.5277 4.30644 -32.0079 24.1115 8.84002 0.227459 46.4744 11.9327 18.2846 38.9338 -17.0077 11.7545 -7.40569 27.1901 62.9731 -7.45104 9.35968 4.03551 -6.13242 -31.4623 -5.96697 1.64491 65.4472 12.9574 -8.37624 -13.0232 -0.32914 -1.33837e-009 8.75228e-006 -1.48252e-008 
5.94053 100.141 -11.4167 7.04047 -3.47123 -83.1448 0.812596 -5.84465 4.6282 -0.251233 32.7431 3.51906 -1.45164 -11.4746 -0.247413 0.0462048 0.000530889 0.662642 15.55 5.58917 4.25454 -11.8883 8.24355 7.65545 1.65303 -16.1162 -22.212 -35.3407 7.80304 -15.1965 -40.3011 -10.0767 7.66495 -15.9354 2.30103 -30.2758 24.1635 8.83526 0.215658 47.1597 12.2568 18.5663 38.0454 -17.6206 12.6921 -7.39864 27.4062 61.681 -7.08418 9.38338 4.15091 -7.89245 -31.9839 -10.6897 1.36963 51.4203 13.2219 -9.08533 -15.546 -0.564772 -1.33837e-009 8.75228e-006 -1.48252e-008 
4.24641 99.1489 -12.1295 6.82699 -5.29772 -84.822 0.466758 -5.61822 8.50182 -0.37995 35.8105 1.33265 -2.84505 -14.1533 -0.387589 0.0462048 0.000530889 0.662642 11.4005 8.29664 4.58922 -11.6167 7.79688 7.89061 1.73088 -17.2813 -22.1983 -35.0231 7.91611 -15.6105 -39.7763 -8.78669 6.98593 -16.1805 0.657704 -28.9086 24.1838 8.82696 0.179246 47.6905 12.4944 18.7537 37.2175 -18.9378 12.7957 -6.7967 27.4365 59.6237 -7.53376 9.3318 4.40795 -10.0482 -31.6691 -15.7962 0.887654 36.7826 9.78304 -11.6662 -16.1948 -0.788823 -1.33837e-009 8.75228e-006 -1.48252e-008 
2.19298 97.1942 -12.7783 6.03 -7.1627 -86.4305 -0.0937015 -6.55782 10.254 -0.365321 42.9894 0.847278 -3.73486 -17.38 -0.547788 0.0462048 0.000530889 0.662642 6.85153 10.1817 5.37466 -10.9921 7.87464 8.34512 1.92337 -16.9134 -22.8107 -34.5527 7.94746 -15.9066 -39.5279 -7.75484 6.92696 -16.4016 -0.105924 -28.5034 24.3848 8.84382 0.307849 47.9846 12.6374 18.8753 36.4742 -20.7113 12.2062 -5.82349 27.3111 56.9559 -7.63279 9.31515 4.55119 -12.5805 -31.5474 -20.5384 0.481457 28.1677 4.91159 -15.5001 -12.2479 -0.578556 -1.33837e-009 8.75228e-006 -1.48252e-008 
-0.00308871 94.9465 -13.2354 4.31736 -8.9593 -87.7105 -1.74503 -8.16052 9.6042 -0.0762573 52.7666 4.76609 1.57758 -17.7435 -0.121749 0.0462048 0.000530889 0.662642 2.68703 11.5543 5.99821 -10.3882 8.92242 8.61046 1.97424 -15.9377 -23.1509 -34.7391 8.0341 -16.0255 -39.0222 -7.59266 7.06452 -16.5747 -0.287933 -28.6082 24.032 8.87883 0.400845 48.1642 12.7333 18.9636 35.7448 -22.6961 11.7509 -5.09929 27.3727 53.5632 -7.06529 9.37023 4.43062 -15.7329 -32.4851 -21.8343 0.376693 30.3775 1.36702 -13.8711 -7.11339 0.0747345 -1.33837e-009 8.75228e-006 -1.48252e-008 
-2.19329 92.6897 -13.523 1.99649 -10.1203 -88.8651 -3.89998 -10.6214 8.62102 0.251652 63.8119 11.3375 13.0214 -15.119 0.631847 0.0462048 0.000530889 0.662642 -0.135259 12.6537 6.23352 -9.9166 10.5844 8.50867 1.84741 -15.5737 -22.6586 -36.0614 8.29936 -16.0249 -38.06 -9.09609 6.59951 -16.0636 -0.142334 -27.9074 22.8526 8.88734 0.168509 48.5164 12.8554 19.0193 34.9994 -24.9778 11.9743 -5.08174 28.0058 49.4245 -7.02044 9.38581 4.21047 -17.9767 -33.7654 -19.8054 0.493259 39.441 0.181081 -7.73189 -6.02212 0.154054 -1.33837e-009 8.75228e-006 -1.48252e-008 
-4.32165 90.9432 -13.7678 -0.0394453 -10.3419 -90.5623 -5.37908 -14.0775 8.76664 0.53504 73.6641 14.5559 21.9537 -13.1502 0.891922 0.0462048 0.000530889 0.662642 -1.2539 13.2663 6.17781 -9.86893 12.1715 8.31484 1.67211 -16.0276 -21.4401 -37.8371 8.66826 -16.0441 -37.5179 -12.5505 5.21429 -14.6854 -0.134328 -25.6205 22.1554 8.86308 -0.133274 49.1947 13.0633 19.0758 34.2822 -27.8723 12.3575 -5.36333 29.0411 44.9277 -8.54909 9.26978 4.04075 -18.5168 -34.1508 -18.5182 0.591502 47.4317 2.18332 -4.26245 -9.30898 -0.0291973 -1.33837e-009 8.75228e-006 -1.48252e-008 
